data:image/svg+xml,data:image/svg+xml,<svg viewBox="0 0 88.061 100" xmlns="http://www.w3.org/2000/svg">
  <path d="M6.755 25.72c7.382-9.081 18.004-15.425 30.093-17.245l-5.514-6.871c-2.868-2.967-9.069-1.697-16.868 2.807S2.468 13.648 3.602 17.615l3.153 8.105zm37.275-1.772a3.002 3.002 0 0 0-3.002 3.002v26.018H15.01a3.002 3.002 0 1 0 0 6.004h29.02a3.002 3.002 0 0 0 3.002-3.002V26.95a3.002 3.002 0 0 0-3.002-3.002zm37.276 1.772c-7.382-9.081-18.004-15.425-30.093-17.245l5.514-6.871c2.868-2.967 9.069-1.697 16.868 2.807s11.998 9.237 10.864 13.204l-3.153 8.105z"/>
  <path d="M44.03 11.939C19.752 11.939 0 31.691 0 55.969S19.752 100 44.03 100s44.03-19.752 44.03-44.031-19.751-44.03-44.03-44.03zm0 82.057c-20.968 0-38.026-17.059-38.026-38.026S23.062 17.943 44.03 17.943s38.026 17.059 38.026 38.026S64.998 93.996 44.03 93.996z"/>
</svg>
