data:image/svg+xml,data:image/svg+xml,<svg viewBox="0 0 499.09 400" xmlns="http://www.w3.org/2000/svg">
  <path d="M12.374 1006c150.75-13.875 302.39-14.408 455.02 0-3.444-95.638-10.307-189.32-7.778-288.37-93.751 3.259-147.24-75.783-227.58-13.081-90.906-64.653-90.903 18.62-222.62 18.385 6.286 95.682 3.846 189.18 2.952 283.07z" style="stroke-linejoin:round;stroke:#000;stroke-linecap:round;stroke-width:4;fill:#000" transform="translate(0 -652.36)"/>
  <path d="M243.95 952.31c56.969-41.116 133.46 25.072 199.4 28.638l-.35-247.85c-104.27-6.8-141.23-84.275-200.82-14.496zm-21.21 2.83c-56.97-41.12-133.46 25.07-199.4 28.63l.348-247.84c104.27-6.8 141.22-84.27 200.82-14.49z" style="fill:#fff" transform="translate(0 -652.36)"/>
</svg>
