data:image/svg+xml,data:image/svg+xml,<svg viewBox="0 0 463.893 438.877" xmlns="http://www.w3.org/2000/svg">
  <path d="M394.811 223.1zL232.001 78.91 69.091 223.16v206.12c0 5.323 4.302 9.594 9.625 9.594h101.81v-90.375c0-5.324 4.27-9.625 9.594-9.625h83.656c5.323 0 9.594 4.301 9.594 9.625v90.375h101.84a9.562 9.562 0 0 0 9.593-9.594V223.09zm-325.72.063z"/>
  <path d="M231.051 0 .001 204.58l24.338 27.457 207.66-183.88 207.61 183.88L463.9 204.58 232.9 0l-.898 1.04-.945-1.04zM69.091 29.45h58.571l-.51 34.691-58.061 52.452V29.45z"/>
</svg>
