data:image/svg+xml,data:image/svg+xml,<svg width="464" height="464" version="1.0" viewBox="0 0 348 348" xmlns="http://www.w3.org/2000/svg">
  <path d="M72.6 30c-9.3 1.1-17.6 4.3-25.8 9.7-10.7 7.1-17.5 15.7-22.7 29.2l-2.6 6.6-.3 102.2c-.3 112.8-.5 108.6 6 122.2 4.2 8.9 16.7 21.4 25.9 25.9 13.2 6.4 9.4 6.2 119.1 6.2 68.1 0 101.4-.3 105-1.1 2.9-.6 9.1-2.9 13.7-5.1 14.5-6.9 25.6-20.3 30.8-37.3 1.7-5.7 1.8-11.8 1.8-107 0-81.8-.3-102-1.4-106.5-4.9-20-19.8-36.1-39.4-42.7l-8.2-2.8-97.5-.1c-53.6-.1-100.6.2-104.4.6zm215.9 60v25.5l-25.7.3-25.8.2V90.7c0-14 .3-25.7.7-26.1.4-.3 11.9-.5 25.7-.4l25.1.3V90zM185 129.1c17.5 4 33.8 20.1 38.5 38 2 7.2 1.9 21.2-.1 28-6.8 23.3-27.6 38.9-51.7 38.9-19.4 0-38.1-11.7-46.7-29.4-6.1-12.3-7.5-24.1-4.5-36.1 6.2-24.2 26.7-40.4 51-40.4 5-.1 11 .4 13.5 1zm-90.5 23.1c-7.2 23.1-6.2 44.3 3 63.7 10.8 22.8 30.1 38.7 55 45.2 16 4.2 37.4 2.3 52.9-4.5 18-8 33.7-23.7 42.1-42 5.5-11.9 6.9-19.4 6.9-34.6-.1-12.9-1.3-19.9-4.9-28.3-.7-1.6.7-1.7 21.9-1.7H294v63.8c0 71.7.1 70.4-7 78.5-2.3 2.6-6.6 5.8-9.8 7.4l-5.7 2.8h-199l-4.6-2.1c-6-2.8-12.5-9.3-15.3-15.3-2.1-4.5-2.1-5.5-2.4-69.9l-.3-65.2h45.3l-.7 2.2z"/>
</svg>
