data:image/svg+xml,data:image/svg+xml,<svg width="682.667" height="682.667" version="1.0" viewBox="0 0 512 512" xmlns="http://www.w3.org/2000/svg">
  <path d="M236.5 1.1C193.2 5.1 154 18.6 124 39.9c-11.6 8.2-29.2 25-37.5 35.7-23.9 31-36 64.3-38.1 104.8-2.6 51.1 24.9 107.1 61.8 125.7 7 3.6 11.2 3.8 13.2.6 2-2.9 10.6-36.4 10.6-40.8 0-2.5-1.3-5-4.6-9.4-9-11.9-16.8-31.2-20-49.5-2-11.4-1.4-32.3 1.1-44 8-36.8 30.2-67.7 62.5-87.3 23-13.9 50.3-20.8 82-20.8 42.1 0 74.5 12.4 100.6 38.5 16.9 17 25.7 32.9 31.4 56.7 5.2 22.2 4.3 53.5-2.6 81.1-10.1 40.7-32.5 71.1-62.1 84.1-10.9 4.8-20.7 6.9-33.3 7-16.4.1-25.6-3.3-36.4-13.3-6-5.6-8.9-10.1-11.6-17.9-4.2-12.5-2.8-20.6 11-64.1 16.6-52.4 18.5-68.1 10.4-85.5-6.5-14.1-19.2-21.5-36.5-21.5-25.8 0-47.3 19.7-55.7 50.9-2.2 8.3-2.5 11.7-2.5 24.6 0 16.4 1.9 27.6 6.7 39.4l2.5 6.2-19.9 80.3c-12.4 50.4-20.3 84-20.9 90-2.4 21.1-.8 60.5 3.5 88.1 1.6 10.2 3 13.2 5.8 12.2 3.8-1.5 28.7-41.9 40.1-65.2 10.5-21.4 12-25.8 24.6-71.9 9.7-35.3 10.4-37.6 11.8-35.5 3.1 5.1 15.1 15.6 22.4 19.8 15.7 8.9 32.6 13.1 52.5 13.1 31.6 0 61.6-9.6 89.2-28.6 11.1-7.6 31.8-28.4 40-40.2 23.3-33.3 35.3-70.2 37.6-115.2 2.3-46.4-14.4-91.4-46.4-125.1-31.4-33.1-72.3-53.5-121.1-60.5C283 .6 250-.2 236.5 1.1z"/>
</svg>
