data:image/svg+xml,data:image/svg+xml,<svg width="682.667" height="682.667" version="1.0" viewBox="0 0 512 512" xmlns="http://www.w3.org/2000/svg">
  <path d="M4.4 38.8c-1.2.9-2.7 2.7-3.3 3.9-1.6 3.1-1.6 353.5 0 356.6.6 1.2 2.1 3 3.3 3.9 2 1.7 16.7 1.8 251.6 1.8s249.6-.1 251.6-1.8c1.2-.9 2.7-2.7 3.3-3.9 1.6-3.1 1.6-353.5 0-356.6-.6-1.2-2.1-3-3.3-3.9-2-1.7-16.7-1.8-251.6-1.8S6.4 37.1 4.4 38.8zM471 213.5V342H41V85h430v128.5zM260.6 365.6c5.9 2.8 8.2 10.3 4.7 15.4-2.7 4-4.5 4.9-9.3 4.9-4.8 0-6.6-.9-9.3-4.9-3.5-5-1.1-13.1 4.6-15.5 4.2-1.8 5.2-1.8 9.3.1z"/>
  <path d="M278 175.5 229.5 224 208 202.4c-11.8-11.8-22.3-22-23.3-22.5-1.6-.9-3.9.9-15.3 12.2-7.4 7.3-13.7 14.2-14 15.2-.5 1.6 6.5 9.1 35.2 37.9 19.8 19.8 36.7 36.4 37.8 37 1.6.9 9.7-6.8 65.2-62.3C328.5 185 357 156 357 155.5c0-1.6-27.4-28.5-29-28.5-.8 0-23.3 21.8-50 48.5zM160.5 436.7l-24.6 23.7.3 7 .3 7.1h239l.3-7.1.3-7-24.6-23.7-24.6-23.7H185.1l-24.6 23.7z"/>
</svg>
