data:image/svg+xml,data:image/svg+xml,<svg viewBox="0 0 1109 901" xmlns="http://www.w3.org/2000/svg">
  <path fill-rule="evenodd" stroke="#000" stroke-width=".5" d="M741 .2V0h52l19 3.8q19 3.7 34.5 9.7t30 14 26.3 16.3q11.7 8.2 21 17.4 9.2 9.3 28.7 4.8t42-12.5 44.5-18 26.8-12.7q4.7-2.8 5-3l.2-.3 1-.5 1-.5 1-.5 1-.5.2-.3.3-.2.3-.2.2-.3 1-.3 1-.2-.2 1.5-.3 1.5-.5 1.5-.5 1.5-.5 1-.5 1-.5 1.5q-.5 1.5-1 4t-9.5 20T1042 85t-24.2 27.2q-10.8 9.3-14.3 13-3.5 3.8-8.5 7l-5 3.3-1 .5-1 .5-.2.3-.3.2-.3.2-.2.3-1 .5-1 .5-.2.3-.3.2-.3.2-.2.3-.2.3-.3.2-.3.2-.2.3h5l28-6q28-6 53.5-14.5t27-9 3-1l1.5-.5 1-.5 1-.5 1-.5 1-.5 2-.3 2-.2v2l-.5.2-.5.3-.2.3-.3.2-.3.2-.2.3-.2.3-.3.2-.3.2-.2.3-.2.3-.3.2-.5 1-.5 1-.3.2q-.2.3-12.7 17-12.5 16.8-13.5 17-1 .3-2.8 3-1.7 2.8-21.2 22.3t-38.2 34.7q-18.8 15.3-19 37.6-.3 22.2-2.3 50.2t-7.5 60.5-17 73.5-28 80-34.5 70-33 52.5T844 673t-39.2 42.8q-23.8 23.7-26 26-2.3 2.2-19.6 16.4-17.2 14.3-37 28.6-19.7 14.2-36.2 23.7t-39.8 21.7Q623 844.5 596 855t-57 19.5-58 14-63.5 8.5l-35.5 3.5v.5h-65v-.5l-8.5-.5q-8.5-.5-14-1t-41.5-5.5-56.5-10-61-19-69.3-28.3q-28.7-14.2-36-18Q23 814.5 14 809l-9-5.5-.2-.3-.3-.2-.3-.2-.2-.3-1-.5-1-.5-.2-.3-.3-.2-.3-.2-.2-.3-.2-.3-.3-.2H0v-2l1 .2 1 .3 4.5.5q4.5.5 24.5 1.5t42.5 0 46-4.5 55.5-12 58.8-20.2q26.7-11.8 38-17.6Q283 740.5 306 725l23-15.5.2-.3.3-.2.3-.2.2-.3.2-.3.3-.2.3-.2.2-.3 1-.3 1-.2.2-1 .3-1 .3-.2.2-.3-8-.5q-8-.5-15.5-1t-23.5-4.5-34.5-12-36-19-25.3-18.3q-7.7-7.2-20-20.4-12.2-13.3-21.2-27.3t-17.2-32.3l-8.3-18.2-.5-1.5-.5-1.5-.3-1-.2-1 1.5.2 1.5.3 11 1.5q11 1.5 34.5 1t32.5-2 11-2l2-.5 2.5-.5 2.5-.5.2-.3.3-.2.3-.2.2-.3-2-.5-2-.5-2-.5-2-.5-2-.5q-2-.5-7-2t-27-11-35-18.5-24.8-19.7Q107.5 478 93.5 461t-25-39.5-16.5-43-7.2-41.5L43 316l1 .2 1 .3 1 .5 1 .5 1 .5 1 .5 15.5 7q15.5 7 38.5 12t27.5 5.5l4.5.5h9l-.2-.3-.3-.2-.3-.2-.2-.3-.2-.3-.3-.2-.3-.2-.2-.3-1-.5-1-.5-.2-.3-.3-.2-.3-.2-.2-.3-1-.5-1-.5-.2-.3q-.3-.2-8.6-6.4-8.2-6.3-17.2-16.3t-18-21T77 271t-14.8-31.8q-7.7-19.2-11.7-38.7T46 162t1-32.5T53 99t13-36l8.5-19 .5-1.5.5-1.5.3-.2.2-.3.2-.3.3-.2.3.2.2.3.2.3.3.2.3.2.2.3.2.3.3.2.5 1 .5 1 .3.2.2.3 13.5 15q13.5 15 32 33.5t20.5 19.2q2 .8 5 4.6 3 3.7 20 17.7t44.5 32.5 61 36.5 72 32.5 54 19 53 11.5 56.5 9 26 2.3l7 .2-.2-1.5-.3-1.5-2-12.5q-2-12.5-2-35T544 186t10.5-38.5 13.7-31.3q6.8-11.7 17.8-26.7t28.5-31 40-28.5T696 11t32-8.5 13-2.3z"/>
</svg>
