<?xml version="1.0" standalone="no"?>
<!DOCTYPE svg PUBLIC "-//W3C//DTD SVG 20010904//EN"
 "http://www.w3.org/TR/2001/REC-SVG-20010904/DTD/svg10.dtd">
<svg version="1.0" xmlns="http://www.w3.org/2000/svg"
 width="348.000000pt" height="348.000000pt" viewBox="0 0 348.000000 348.000000"
 preserveAspectRatio="xMidYMid meet">

<g transform="translate(0.000000,348.000000) scale(0.100000,-0.100000)"
fill="#000000" stroke="none">
<path d="M726 3180 c-93 -11 -176 -43 -258 -97 -107 -71 -175 -157 -227 -292
l-26 -66 -3 -1022 c-3 -1128 -5 -1086 60 -1222 42 -89 167 -214 259 -259 132
-64 94 -62 1191 -62 681 0 1014 3 1050 11 29 6 91 29 137 51 145 69 256 203
308 373 17 57 18 118 18 1070 0 818 -3 1020 -14 1065 -49 200 -198 361 -394
427 l-82 28 -975 1 c-536 1 -1006 -2 -1044 -6z m2159 -600 l0 -255 -257 -3
-258 -2 0 253 c0 140 3 257 7 261 4 3 119 5 257 4 l251 -3 0 -255z m-1035
-391 c175 -40 338 -201 385 -380 20 -72 19 -212 -1 -280 -68 -233 -276 -389
-517 -389 -194 0 -381 117 -467 294 -61 123 -75 241 -45 361 62 242 267 404
510 404 50 1 110 -4 135 -10z m-905 -231 c-72 -231 -62 -443 30 -637 108 -228
301 -387 550 -452 160 -42 374 -23 529 45 180 80 337 237 421 420 55 119 69
194 69 346 -1 129 -13 199 -49 283 -7 16 7 17 219 17 l226 0 0 -638 c0 -717 1
-704 -70 -785 -23 -26 -66 -58 -98 -74 l-57 -28 -995 0 -995 0 -46 21 c-60 28
-125 93 -153 153 -21 45 -21 55 -24 699 l-3 652 227 0 226 0 -7 -22z"/>
</g>
</svg>
