<?xml version="1.0" standalone="no"?>
<!DOCTYPE svg PUBLIC "-//W3C//DTD SVG 20010904//EN"
 "http://www.w3.org/TR/2001/REC-SVG-20010904/DTD/svg10.dtd">
<svg version="1.0" xmlns="http://www.w3.org/2000/svg"
 width="512.000000pt" height="512.000000pt" viewBox="0 0 512.000000 512.000000"
 preserveAspectRatio="xMidYMid meet">

<g transform="translate(0.000000,512.000000) scale(0.100000,-0.100000)"
fill="#000000" stroke="none">
<path d="M44 4732 c-12 -9 -27 -27 -33 -39 -16 -31 -16 -3535 0 -3566 6 -12
21 -30 33 -39 20 -17 167 -18 2516 -18 2349 0 2496 1 2516 18 12 9 27 27 33
39 16 31 16 3535 0 3566 -6 12 -21 30 -33 39 -20 17 -167 18 -2516 18 -2349 0
-2496 -1 -2516 -18z m4666 -1747 l0 -1285 -2150 0 -2150 0 0 1285 0 1285 2150
0 2150 0 0 -1285z m-2104 -1521 c59 -28 82 -103 47 -154 -27 -40 -45 -49 -93
-49 -48 0 -66 9 -93 49 -35 50 -11 131 46 155 42 18 52 18 93 -1z"/>
<path d="M2780 3365 l-485 -485 -215 216 c-118 118 -223 220 -233 225 -16 9
-39 -9 -153 -122 -74 -73 -137 -142 -140 -152 -5 -16 65 -91 352 -379 198
-198 367 -364 378 -370 16 -9 97 68 652 623 349 349 634 639 634 644 0 16
-274 285 -290 285 -8 0 -233 -218 -500 -485z"/>
<path d="M1605 753 l-246 -237 3 -70 3 -71 1195 0 1195 0 3 71 3 70 -246 237
-246 237 -709 0 -709 0 -246 -237z"/>
</g>
</svg>
