<?xml version="1.0" encoding="UTF-8"?>
<svg viewBox="0 0 1109 901" xmlns="http://www.w3.org/2000/svg">
 <g fill-rule="evenodd" stroke-width=".5">
  <path d="m741 0.2v-0.2h52l19 3.8q19 3.7 34.5 9.7t30 14 26.3 16.3q11.7 8.2 21 17.4 9.2 9.3 28.7 4.8t42-12.5 44.5-18 26.8-12.7q4.7-2.8 5-3l0.2-0.3 1-0.5 1-0.5 1-0.5 1-0.5 0.2-0.3 0.3-0.2 0.3-0.2 0.2-0.3 1-0.3 1-0.2-0.2 1.5-0.3 1.5-0.5 1.5-0.5 1.5-0.5 1-0.5 1-0.5 1.5q-0.5 1.5-1 4t-9.5 20-22.5 35.5-24.2 27.2q-10.8 9.3-14.3 13-3.5 3.8-8.5 7l-5 3.3-1 0.5-1 0.5-0.2 0.3-0.3 0.2-0.3 0.2-0.2 0.3-1 0.5-1 0.5-0.2 0.3-0.3 0.2-0.3 0.2-0.2 0.3-0.2 0.3-0.3 0.2-0.3 0.2-0.2 0.3h5l28-6q28-6 53.5-14.5t27-9 3-1l1.5-0.5 1-0.5 1-0.5 1-0.5 1-0.5 2-0.3 2-0.2v2l-0.5 0.2-0.5 0.3-0.2 0.3-0.3 0.2-0.3 0.2-0.2 0.3-0.2 0.3-0.3 0.2-0.3 0.2-0.2 0.3-0.2 0.3-0.3 0.2-0.5 1-0.5 1-0.3 0.2q-0.2 0.3-12.7 17-12.5 16.8-13.5 17-1 0.3-2.8 3-1.7 2.8-21.2 22.3t-38.2 34.7q-18.8 15.3-19 37.6-0.3 22.2-2.3 50.2t-7.5 60.5-17 73.5-28 80-34.5 70-33 52.5-30.5 40.5-39.2 42.8q-23.8 23.7-26 26-2.3 2.2-19.6 16.4-17.2 14.3-37 28.6-19.7 14.2-36.2 23.7t-39.8 21.7q-23.2 12.3-50.2 22.8t-57 19.5-58 14-63.5 8.5l-35.5 3.5v0.5h-65v-0.5l-8.5-0.5q-8.5-0.5-14-1t-41.5-5.5-56.5-10-61-19-69.3-28.3q-28.7-14.2-36-18-7.2-3.7-16.2-9.2l-9-5.5-0.2-0.3-0.3-0.2-0.3-0.2-0.2-0.3-1-0.5-1-0.5-0.2-0.3-0.3-0.2-0.3-0.2-0.2-0.3-0.2-0.3-0.3-0.2h-0.5v-2l1 0.2 1 0.3 4.5 0.5q4.5 0.5 24.5 1.5t42.5 0 46-4.5 55.5-12 58.8-20.2q26.7-11.8 38-17.6 11.2-5.7 34.2-21.2l23-15.5 0.2-0.3 0.3-0.2 0.3-0.2 0.2-0.3 0.2-0.3 0.3-0.2 0.3-0.2 0.2-0.3 1-0.3 1-0.2 0.2-1 0.3-1 0.3-0.2 0.2-0.3-8-0.5q-8-0.5-15.5-1t-23.5-4.5-34.5-12-36-19-25.3-18.3q-7.7-7.2-20-20.4-12.2-13.3-21.2-27.3t-17.2-32.3l-8.3-18.2-0.5-1.5-0.5-1.5-0.3-1-0.2-1 1.5 0.2 1.5 0.3 11 1.5q11 1.5 34.5 1t32.5-2 11-2l2-0.5 2.5-0.5 2.5-0.5 0.2-0.3 0.3-0.2 0.3-0.2 0.2-0.3-2-0.5-2-0.5-2-0.5-2-0.5-2-0.5q-2-0.5-7-2t-27-11-35-18.5-24.8-19.7q-11.7-10.8-25.7-27.8t-25-39.5-16.5-43-7.2-41.5l-1.8-21 1 0.2 1 0.3 1 0.5 1 0.5 1 0.5 1 0.5 15.5 7q15.5 7 38.5 12t27.5 5.5l4.5 0.5h9l-0.2-0.3-0.3-0.2-0.3-0.2-0.2-0.3-0.2-0.3-0.3-0.2-0.3-0.2-0.2-0.3-1-0.5-1-0.5-0.2-0.3-0.3-0.2-0.3-0.2-0.2-0.3-1-0.5-1-0.5-0.2-0.3q-0.3-0.2-8.6-6.4-8.2-6.3-17.2-16.3t-18-21-16-23.5-14.8-31.8q-7.7-19.2-11.7-38.7t-4.5-38.5 1-32.5 6-30.5 13-36l8.5-19 0.5-1.5 0.5-1.5 0.3-0.2 0.2-0.3 0.2-0.3 0.3-0.2 0.3 0.2 0.2 0.3 0.2 0.3 0.3 0.2 0.3 0.2 0.2 0.3 0.2 0.3 0.3 0.2 0.5 1 0.5 1 0.3 0.2 0.2 0.3 13.5 15q13.5 15 32 33.5t20.5 19.2q2 0.8 5 4.6 3 3.7 20 17.7t44.5 32.5 61 36.5 72 32.5 54 19 53 11.5 56.5 9 26 2.3l7 0.2-0.2-1.5-0.3-1.5-2-12.5q-2-12.5-2-35t3.5-41.5 10.5-38.5 13.7-31.3q6.8-11.7 17.8-26.7t28.5-31 40-28.5 41.5-19 32-8.5 13-2.3z" fill="#000" stroke="#000"/>
 </g>
</svg>
